<mxfile host="Electron" modified="2023-12-27T22:35:27.416Z" agent="Mozilla/5.0 (Windows NT 10.0; Win64; x64) AppleWebKit/537.36 (KHTML, like Gecko) draw.io/22.1.11 Chrome/114.0.5735.289 Electron/25.9.8 Safari/537.36" etag="gzpw1I8ApsQZIZNRgIPL" version="22.1.11" type="device">
  <diagram name="Страница — 1" id="K1GuHLXQaXbjNu8LGzyw">
    <mxGraphModel dx="1036" dy="606" grid="1" gridSize="10" guides="1" tooltips="1" connect="1" arrows="1" fold="1" page="1" pageScale="1" pageWidth="827" pageHeight="1169" math="0" shadow="0">
      <root>
        <mxCell id="0" />
        <mxCell id="1" parent="0" />
        <mxCell id="CviIP6W64GD_s6nnUqM6-19" style="edgeStyle=orthogonalEdgeStyle;rounded=0;orthogonalLoop=1;jettySize=auto;html=1;exitX=0.5;exitY=0;exitDx=0;exitDy=0;entryX=0.5;entryY=1;entryDx=0;entryDy=0;" edge="1" parent="1" source="CviIP6W64GD_s6nnUqM6-1" target="CviIP6W64GD_s6nnUqM6-18">
          <mxGeometry relative="1" as="geometry" />
        </mxCell>
        <mxCell id="CviIP6W64GD_s6nnUqM6-1" value="Н_ЛЮДИ" style="rounded=0;whiteSpace=wrap;html=1;" vertex="1" parent="1">
          <mxGeometry x="40" y="700" width="120" height="60" as="geometry" />
        </mxCell>
        <mxCell id="CviIP6W64GD_s6nnUqM6-4" style="rounded=0;orthogonalLoop=1;jettySize=auto;html=1;exitX=0.5;exitY=0;exitDx=0;exitDy=0;entryX=1;entryY=1;entryDx=0;entryDy=0;" edge="1" parent="1" source="CviIP6W64GD_s6nnUqM6-2" target="CviIP6W64GD_s6nnUqM6-3">
          <mxGeometry relative="1" as="geometry" />
        </mxCell>
        <mxCell id="CviIP6W64GD_s6nnUqM6-2" value="Н_УЧЕНИКИ" style="rounded=0;whiteSpace=wrap;html=1;" vertex="1" parent="1">
          <mxGeometry x="200" y="620" width="120" height="60" as="geometry" />
        </mxCell>
        <mxCell id="CviIP6W64GD_s6nnUqM6-9" style="rounded=0;orthogonalLoop=1;jettySize=auto;html=1;exitX=0.5;exitY=0;exitDx=0;exitDy=0;entryX=0;entryY=1;entryDx=0;entryDy=0;" edge="1" parent="1" source="CviIP6W64GD_s6nnUqM6-3" target="CviIP6W64GD_s6nnUqM6-7">
          <mxGeometry relative="1" as="geometry" />
        </mxCell>
        <mxCell id="CviIP6W64GD_s6nnUqM6-3" value="⋈&lt;br&gt;Н_ЛЮДИ.ИД = Н_УЧЕНИКИ.ЧЛВК_ИД" style="rounded=0;whiteSpace=wrap;html=1;" vertex="1" parent="1">
          <mxGeometry x="110" y="540" width="140" height="60" as="geometry" />
        </mxCell>
        <mxCell id="CviIP6W64GD_s6nnUqM6-22" style="edgeStyle=orthogonalEdgeStyle;rounded=0;orthogonalLoop=1;jettySize=auto;html=1;exitX=0.5;exitY=0;exitDx=0;exitDy=0;entryX=0.5;entryY=1;entryDx=0;entryDy=0;" edge="1" parent="1" source="CviIP6W64GD_s6nnUqM6-6" target="CviIP6W64GD_s6nnUqM6-21">
          <mxGeometry relative="1" as="geometry" />
        </mxCell>
        <mxCell id="CviIP6W64GD_s6nnUqM6-6" value="Н_ОБУЧЕНИЯ" style="rounded=0;whiteSpace=wrap;html=1;" vertex="1" parent="1">
          <mxGeometry x="360" y="620" width="120" height="60" as="geometry" />
        </mxCell>
        <mxCell id="CviIP6W64GD_s6nnUqM6-11" style="edgeStyle=orthogonalEdgeStyle;rounded=0;orthogonalLoop=1;jettySize=auto;html=1;exitX=0.5;exitY=0;exitDx=0;exitDy=0;entryX=0.5;entryY=1;entryDx=0;entryDy=0;" edge="1" parent="1" source="CviIP6W64GD_s6nnUqM6-7">
          <mxGeometry relative="1" as="geometry">
            <mxPoint x="300" y="440" as="targetPoint" />
          </mxGeometry>
        </mxCell>
        <mxCell id="CviIP6W64GD_s6nnUqM6-7" value="⋈&lt;br&gt;Н_УЧЕНИКИ.ЧЛВК_ИД = Н_ОБУЧЕНИЯ.ЧЛВК_ИД" style="rounded=0;whiteSpace=wrap;html=1;" vertex="1" parent="1">
          <mxGeometry x="230" y="460" width="140" height="60" as="geometry" />
        </mxCell>
        <mxCell id="CviIP6W64GD_s6nnUqM6-17" style="edgeStyle=orthogonalEdgeStyle;rounded=0;orthogonalLoop=1;jettySize=auto;html=1;exitX=0.5;exitY=0;exitDx=0;exitDy=0;entryX=0.5;entryY=1;entryDx=0;entryDy=0;" edge="1" parent="1" source="CviIP6W64GD_s6nnUqM6-14" target="CviIP6W64GD_s6nnUqM6-16">
          <mxGeometry relative="1" as="geometry" />
        </mxCell>
        <mxCell id="CviIP6W64GD_s6nnUqM6-14" value="π&lt;br style=&quot;border-color: var(--border-color);&quot;&gt;Н_ЛЮДИ.ИМЯ, Н_ОБУЧЕНИЯ.НЗК, Н_УЧЕНИКИ.ИД" style="rounded=0;whiteSpace=wrap;html=1;" vertex="1" parent="1">
          <mxGeometry x="240" y="380" width="120" height="60" as="geometry" />
        </mxCell>
        <mxCell id="CviIP6W64GD_s6nnUqM6-16" value="Результат" style="rounded=0;whiteSpace=wrap;html=1;" vertex="1" parent="1">
          <mxGeometry x="240" y="300" width="120" height="60" as="geometry" />
        </mxCell>
        <mxCell id="CviIP6W64GD_s6nnUqM6-20" style="edgeStyle=orthogonalEdgeStyle;rounded=0;orthogonalLoop=1;jettySize=auto;html=1;exitX=0.5;exitY=0;exitDx=0;exitDy=0;entryX=0;entryY=1;entryDx=0;entryDy=0;" edge="1" parent="1" source="CviIP6W64GD_s6nnUqM6-18" target="CviIP6W64GD_s6nnUqM6-3">
          <mxGeometry relative="1" as="geometry" />
        </mxCell>
        <mxCell id="CviIP6W64GD_s6nnUqM6-18" value="σ&lt;br&gt;Н_ЛЮДИ.ИМЯ &amp;lt; &#39;Роман&#39;" style="rounded=0;whiteSpace=wrap;html=1;" vertex="1" parent="1">
          <mxGeometry x="40" y="620" width="120" height="60" as="geometry" />
        </mxCell>
        <mxCell id="CviIP6W64GD_s6nnUqM6-23" style="rounded=0;orthogonalLoop=1;jettySize=auto;html=1;exitX=0.5;exitY=0;exitDx=0;exitDy=0;entryX=1;entryY=1;entryDx=0;entryDy=0;" edge="1" parent="1" source="CviIP6W64GD_s6nnUqM6-21" target="CviIP6W64GD_s6nnUqM6-7">
          <mxGeometry relative="1" as="geometry" />
        </mxCell>
        <mxCell id="CviIP6W64GD_s6nnUqM6-21" value="σ&lt;br style=&quot;border-color: var(--border-color);&quot;&gt;Н_ОБУЧЕНИЯ.НЗК &amp;lt; &#39;001000&#39;" style="rounded=0;whiteSpace=wrap;html=1;" vertex="1" parent="1">
          <mxGeometry x="360" y="540" width="120" height="60" as="geometry" />
        </mxCell>
      </root>
    </mxGraphModel>
  </diagram>
</mxfile>
